HIERARCHY
ROOT Hips
{
	OFFSET 0.000000 0.000000 0.000000
	CHANNELS 6 Xposition Yposition Zposition Zrotation Yrotation Xrotation 
	JOINT LHipJoint
	{
		OFFSET 0.000000 0.000000 0.000000
		CHANNELS 3 Zrotation Yrotation Xrotation
		JOINT LeftUpLeg
		{
			OFFSET 1.363060 -1.794630 0.839290
			CHANNELS 3 Zrotation Yrotation Xrotation
			JOINT LeftLeg
			{
				OFFSET 2.448110 -6.726130 0.000000
				CHANNELS 3 Zrotation Yrotation Xrotation
				JOINT LeftFoot
				{
					OFFSET 2.562200 -7.039590 0.000000
					CHANNELS 3 Zrotation Yrotation Xrotation
					JOINT LeftToeBase
					{
						OFFSET 0.157640 -0.433110 2.322550
						CHANNELS 3 Zrotation Yrotation Xrotation
						End Site
						{
							OFFSET 0.000000 0.000000 0.000000
						}
					}
				}
			}
		}
	}
	JOINT RHipJoint
	{
		OFFSET 0.000000 0.000000 0.000000
		CHANNELS 3 Zrotation Yrotation Xrotation
		JOINT RightUpLeg
		{
			OFFSET -1.305520 -1.794630 0.839290
			CHANNELS 3 Zrotation Yrotation Xrotation
			JOINT RightLeg
			{
				OFFSET -2.542530 -6.985550 0.000000
				CHANNELS 3 Zrotation Yrotation Xrotation
				JOINT RightFoot
				{
					OFFSET -2.568260 -7.056230 0.000000
					CHANNELS 3 Zrotation Yrotation Xrotation
					JOINT RightToeBase
					{
						OFFSET -0.164730 -0.452590 2.363150
						CHANNELS 3 Zrotation Yrotation Xrotation
						End Site
						{
							OFFSET 0.000000 0.000000 0.000000
						}
					}
				}
			}
		}
	}
}
MOTION
Frames: 28
Frame Time: 0.008333
0.670672 16.609445 0.799577 33.049066 79.657389 54.962228 -12.027764 2.268659 -3.962129 -1.803681 10.190728 -15.409055 -0.552179 2.840796 43.408149 1.198317 0.304125 20.728156 -0.476500 -0.000000 -68.311899 8.322551 1.473756 -1.128867 11.923320 1.361153 -48.893287 2.124493 -2.088241 33.649667 -1.629380 -4.260356 -11.499003 179.986200 -0.000000 -1.713900
0.820051 16.602125 0.885119 31.386072 79.593224 53.023892 -12.029373 2.127309 -4.083315 -1.338713 10.135536 -16.135715 -0.418035 2.989810 45.723742 1.347003 1.546098 21.079445 0.027300 -0.000000 -63.699000 8.295119 1.461245 -1.370281 12.413896 1.449335 -48.172114 2.131634 -2.166893 34.932401 -1.701947 -4.191853 -13.152667 -179.794800 -0.000000 -3.118900
0.968443 16.599413 0.973948 29.897671 79.488463 51.277352 -12.009128 1.981252 -4.196579 -0.991493 10.018265 -16.905507 -0.287321 3.130497 47.938992 1.508970 3.143342 21.177815 0.707600 0.000000 -59.267400 8.280534 1.442869 -1.581250 12.850439 1.550804 -47.295957 2.143103 -2.204589 35.841996 -1.796474 -4.236213 -14.695492 -179.586500 -0.000000 -4.045300
1.116789 16.601127 1.066026 28.609440 79.337456 49.760877 -11.970451 1.833484 -4.295559 -0.768410 9.842563 -17.725270 -0.161011 3.259278 50.022475 1.682862 5.016630 21.032234 1.518000 0.000000 -55.150100 8.278083 1.417381 -1.754966 13.223633 1.673357 -46.306330 2.155103 -2.207820 36.407882 -1.903122 -4.368528 -16.062015 -179.391100 0.000000 -4.578500
1.265720 16.607248 1.161065 27.510921 79.137507 48.472810 -11.917286 1.686758 -4.374612 -0.663855 9.614669 -18.597947 -0.040880 3.373285 51.945540 1.865637 7.063590 20.661052 2.396800 -0.000000 -51.464000 8.285703 1.383853 -1.886475 13.532080 1.826269 -45.239807 2.165163 -2.182118 36.663733 -2.011548 -4.557695 -17.207940 -179.213300 -0.000000 -4.829600
1.415775 16.617757 1.258732 26.580879 78.887899 47.404335 -11.852238 1.542946 -4.430302 -0.669066 9.340876 -19.530856 0.070848 3.470807 53.688184 2.051442 9.168385 20.077938 3.274600 -0.000000 -48.165700 8.301625 1.342469 -1.972942 13.777069 2.017957 -44.135857 2.172249 -2.132869 36.649400 -2.112228 -4.769329 -18.113932 -179.059200 0.000000 -4.923300
1.567093 16.632770 1.358533 25.774118 78.589960 46.514156 -11.777844 1.403820 -4.460049 -0.765889 9.028187 -20.521941 0.172039 3.550790 55.230846 2.233460 11.218199 19.311202 4.086000 0.000001 -45.304300 8.323357 1.293535 -2.013998 13.965444 2.255016 -43.020467 2.176827 -2.064161 36.402476 -2.197830 -4.971727 -18.783734 -178.934000 -0.000000 -4.979800
1.719714 16.652337 1.459966 25.045802 78.245650 45.762845 -11.695955 1.270307 -4.463960 -0.935334 8.684142 -21.571472 0.260622 3.613636 56.562775 2.403328 13.109234 18.379695 4.773100 -0.000000 -42.787600 8.348325 1.238197 -2.012093 14.106277 2.541018 -41.916470 2.180389 -1.979539 35.960514 -2.263771 -5.138673 -19.240341 -178.840700 -0.000000 -5.093601
1.873370 16.676467 1.562543 24.356695 77.858126 45.110319 -11.607655 1.143037 -4.443022 -1.157522 8.314757 -22.671485 0.334971 3.659745 57.673942 2.553626 14.761793 17.311187 5.296100 -0.000000 -40.597300 8.374417 1.177657 -1.971734 14.209390 2.874783 -40.834693 2.184960 -1.881610 35.355150 -2.308288 -5.252492 -19.518917 -178.779000 -0.000000 -5.323300
2.027679 16.705120 1.665865 23.677840 77.430776 44.523034 -11.513560 1.022172 -4.399576 -1.414747 7.924978 -23.810638 0.393715 3.689939 58.558138 2.678253 16.122424 16.131173 5.633800 0.000000 -38.691000 8.399847 1.113434 -1.899582 14.284962 3.250192 -39.777365 2.192625 -1.772259 34.612322 -2.332044 -5.304708 -19.660015 -178.745299 -0.000000 -5.690800
2.182253 16.738093 1.769590 22.992470 76.966979 43.977349 -11.413764 0.907658 -4.336735 -1.692732 7.519067 -24.973686 0.435630 3.704967 59.210628 2.773293 17.166668 14.862744 5.784000 -0.000001 -37.023800 8.423639 1.047086 -1.803545 14.341813 3.656196 -38.739085 2.205074 -1.652776 33.751394 -2.337471 -5.295643 -19.702459 -178.734600 0.000001 -6.189200
2.336683 16.775054 1.873483 22.295647 76.469898 43.459084 -11.307728 0.799056 -4.258101 -1.981518 7.099485 -26.142580 0.459697 3.705282 59.627854 2.837612 17.898438 13.530817 5.762700 0.000000 -35.578900 8.445719 0.980258 -1.692328 14.387340 4.078230 -37.709295 2.223389 -1.524035 32.785185 -2.327883 -5.232244 -19.678183 -178.740800 -0.000000 -6.792600
2.490618 16.815521 1.977399 21.590305 75.941514 42.959048 -11.195032 0.696586 -4.166826 -2.275376 6.668699 -27.296981 0.465047 3.691308 59.808557 2.872311 18.342909 12.151196 5.595899 0.000000 -34.275900 8.466725 0.914222 -1.574085 14.427143 4.499102 -36.672365 2.247756 -1.386554 31.721552 -2.306689 -5.125809 -19.608406 -178.759200 0.000000 -7.464201
2.643874 16.858937 2.081274 20.885136 75.382826 42.475149 -11.074914 0.600255 -4.065530 -2.572653 6.227565 -28.417846 0.451056 3.662967 59.751962 2.880997 18.543369 10.743010 5.318200 0.000000 -33.065300 8.488191 0.850070 -1.456166 14.464694 4.900814 -35.614882 2.277564 -1.241009 30.566030 -2.276597 -4.988741 -19.501875 -178.786300 -0.000000 -8.162800
2.796489 16.904626 2.185071 20.190116 74.794602 42.008665 -10.946313 0.509787 -3.956055 -2.874980 5.775435 -29.488601 0.417590 3.619626 59.457658 2.869346 18.555221 9.329735 4.968300 0.000000 -31.942100 8.512501 0.788433 -1.344658 14.501322 5.265873 -34.526741 2.311598 -1.088449 29.323267 -2.239014 -4.831677 -19.355050 -178.821100 0.000000 -8.846400
2.948579 16.951861 2.288854 19.514784 74.175002 41.560910 -10.808929 0.425637 -3.838911 -3.184802 5.312024 -30.496027 0.364998 3.560957 58.929067 2.843771 18.435033 7.928670 4.579800 0.000000 -30.846100 8.542017 0.729493 -1.243508 14.536969 5.579246 -33.402892 2.348031 -0.930345 28.000980 -2.193914 -4.661829 -19.154611 -178.864200 0.000000 -9.473700
3.100395 16.999929 2.392615 18.863506 73.521711 41.131227 -10.662795 0.348179 -3.713561 -3.504686 4.836676 -31.431608 0.294329 3.486571 58.171381 2.811090 18.236895 6.559387 4.181599 0.000000 -29.733000 8.579130 0.672864 -1.154847 14.569942 5.829234 -32.244556 2.384970 -0.768875 26.611040 -2.139742 -4.481064 -18.881059 -178.917700 -0.000000 -10.005799
3.252321 17.048160 2.496402 18.237530 72.831713 40.719134 -10.508275 0.277558 -3.578628 -3.835497 4.348317 -32.292216 0.207336 3.396191 57.191398 2.777750 18.007516 5.243717 3.796500 -0.000000 -28.593800 8.625942 0.617831 -1.079211 14.597507 6.008476 -31.061043 2.420751 -0.607015 25.171320 -2.073681 -4.285226 -18.513012 -178.984400 -0.000000 -10.407100
3.404752 17.095956 2.600178 17.630755 72.102649 40.320537 -10.346299 0.213476 -3.432151 -4.174168 3.845994 -33.080409 0.106621 3.289906 55.999140 2.749096 17.782400 4.005895 3.440900 0.000000 -27.456899 8.683562 0.563238 -1.015519 14.617787 6.116071 -29.868970 2.454301 -0.448359 23.705786 -1.992534 -4.065856 -18.032307 -179.066700 -0.000001 -10.649800
3.557980 17.142871 2.703914 17.035804 71.331626 39.929776 -10.178361 0.156035 -3.272315 -4.515602 3.330752 -33.799506 -0.005000 3.168262 54.605647 2.728592 17.583095 2.863866 3.123600 0.000001 -26.325300 8.752441 0.507972 -0.961934 14.627160 6.155472 -28.686042 2.485037 -0.296921 22.243599 -1.893065 -3.810460 -17.427518 -179.165600 -0.000001 -10.713700
3.712227 17.188565 2.807552 16.442201 70.516972 39.540067 -10.006190 0.104754 -3.097766 -4.851091 2.804207 -34.456143 -0.124407 3.032151 53.023888 2.717883 17.418905 1.834932 2.849700 -0.000000 -25.241600 8.831852 0.451024 -0.916047 14.623451 6.136574 -27.532348 2.513065 -0.156724 20.816843 -1.773137 -3.505976 -16.697370 -179.279700 0.000000 -10.592200
3.867683 17.232814 2.910956 15.835778 69.659739 39.142981 -9.831708 0.058516 -2.908062 -5.168437 2.269625 -35.058830 -0.248539 2.882705 51.267943 2.716674 17.287546 0.931732 2.620400 -0.000000 -24.261300 8.919814 0.391527 -0.874971 14.606231 6.075931 -26.426922 2.538906 -0.031268 19.456935 -1.632658 -3.143134 -15.851476 -179.404900 -0.000000 -10.297100
4.024239 17.275483 3.014066 15.211215 68.760674 38.734283 -9.656791 0.016862 -2.704221 -5.457456 1.732611 -35.611001 -0.375078 2.721239 49.351159 2.722945 17.178130 0.158441 2.433801 0.000000 -23.416700 9.014244 0.329594 -0.836515 14.572762 5.991846 -25.381988 2.562829 0.076510 18.193690 -1.473113 -2.715404 -14.909463 -179.534900 -0.000000 -9.849300
4.181747 17.316532 3.116788 14.562747 67.822912 38.309786 -9.483124 -0.021188 -2.488388 -5.707764 1.199994 -36.116217 -0.502377 2.549014 47.286813 2.733410 17.073441 -0.487900 2.285900 0.000001 -22.740400 9.112406 0.265683 -0.798696 14.522237 5.905766 -24.404519 2.584921 0.164842 17.050435 -1.298251 -2.223787 -13.898245 -179.661900 -0.000000 -9.281700
4.339988 17.355866 3.219004 13.887618 66.851811 37.866935 -9.311945 -0.056859 -2.263800 -5.911108 0.679264 -36.575520 -0.629501 2.366972 45.087298 2.743909 16.952629 -1.015999 2.170900 0.000000 -22.263500 9.211585 0.200564 -0.759799 14.454841 5.840348 -23.495224 2.604768 0.233066 16.042501 -1.113510 -1.676880 -12.848111 -179.777999 -0.000000 -8.636100
4.498658 17.393422 3.320695 13.189690 65.852667 37.406701 -9.144348 -0.090843 -2.034465 -6.063784 0.179417 -36.986084 -0.756619 2.175859 42.763126 2.749871 16.793819 -1.441141 2.081500 -0.000000 -21.987501 9.309511 0.135445 -0.719053 14.369956 5.814670 -22.647403 2.621298 0.281479 15.177796 -0.925045 -1.088811 -11.788798 -179.876900 -0.000000 -7.945700
4.657464 17.429029 3.421820 12.474412 64.832035 36.930394 -8.981038 -0.124013 -1.804435 -6.165409 -0.291499 -37.343790 -0.884427 1.975914 40.323619 2.746708 16.576094 -1.780289 2.009900 0.000000 -21.910500 9.404351 0.071375 -0.675931 14.267969 5.844576 -21.850345 2.633156 0.311279 14.455081 -0.739182 -0.478717 -10.745683 -179.954500 -0.000000 -7.239000
4.816204 17.462398 3.522363 11.749082 63.795405 36.440010 -8.822923 -0.156792 -1.577869 -6.220045 -0.724602 -37.643602 -1.014499 1.767346 37.777256 2.730027 16.280049 -2.053201 1.947500 -0.000000 -21.991500 9.494447 0.009401 -0.631014 14.149827 5.940005 -21.089085 2.638918 0.324212 13.867439 -0.561426 0.133000 -9.737522 179.990500 -0.000000 -6.523200
